G04*
G04 #@! TF.GenerationSoftware,Altium Limited,Altium Designer,18.1.9 (240)*
G04*
G04 Layer_Physical_Order=1*
G04 Layer_Color=255*
%FSLAX25Y25*%
%MOIN*%
G70*
G01*
G75*
%ADD10C,0.02756*%
%ADD11C,0.00787*%
%ADD12C,0.01968*%
%ADD15R,0.06693X0.04331*%
%ADD16R,0.02362X0.02362*%
%ADD17R,0.02362X0.02362*%
%ADD18R,0.09449X0.07480*%
%ADD19R,0.01181X0.06299*%
%ADD20R,0.06299X0.01181*%
%ADD21R,0.01772X0.06890*%
%ADD22O,0.01772X0.06890*%
%ADD23R,0.01575X0.01181*%
%ADD24R,0.02559X0.04134*%
%ADD25R,0.03937X0.04331*%
%ADD26R,0.03543X0.02756*%
%ADD27O,0.03543X0.02756*%
%ADD28R,0.04331X0.02756*%
%ADD29R,0.03150X0.03937*%
%ADD30R,0.06299X0.11811*%
%ADD31R,0.03937X0.21654*%
%ADD52C,0.01181*%
%ADD53C,0.01575*%
%ADD54C,0.02362*%
%ADD55C,0.07874*%
%ADD56C,0.03937*%
%ADD57R,0.07874X0.07874*%
%ADD58C,0.02362*%
G36*
X28346Y123622D02*
Y114961D01*
X27953Y114567D01*
X18898D01*
Y120472D01*
X22441Y124016D01*
X27953D01*
X28346Y123622D01*
D02*
G37*
G36*
X30082Y91105D02*
Y102328D01*
X41305D01*
X30082Y91105D01*
D02*
G37*
G36*
X85827Y28740D02*
Y26378D01*
X80709D01*
Y28740D01*
X85827Y28740D01*
D02*
G37*
G36*
X78740Y24803D02*
X72441D01*
Y28740D01*
X78740D01*
Y24803D01*
D02*
G37*
G36*
Y8661D02*
X72441D01*
Y12205D01*
X78740D01*
Y8661D01*
D02*
G37*
D10*
X30082Y92975D02*
Y102328D01*
X23130Y86024D02*
X30082Y92975D01*
X14173Y86024D02*
X23130D01*
X30082Y102328D02*
X46232D01*
X25127Y107283D02*
X30082Y102328D01*
X21063Y107283D02*
X25127D01*
X46232Y102328D02*
X50787Y106884D01*
Y119921D01*
D11*
X146850Y70866D02*
Y73622D01*
X146063Y70079D02*
X146850Y70866D01*
X144095Y70079D02*
X146063D01*
X126221Y109843D02*
X126299Y109921D01*
X113583Y55906D02*
X113779Y55709D01*
X132283Y109843D02*
X134646Y107480D01*
X127165Y109843D02*
X132283D01*
X119685Y113858D02*
X119764Y113779D01*
X134049Y111417D02*
X137593Y107874D01*
X130315Y111417D02*
X134049D01*
X137593Y107874D02*
X138189D01*
X129404Y105118D02*
X149606D01*
X138262Y103470D02*
X140551Y101181D01*
X130163Y103470D02*
X138262D01*
X18504Y35433D02*
X18898Y35827D01*
X18504Y26969D02*
X18898Y27362D01*
X123622Y99213D02*
Y105905D01*
X119685Y106102D02*
X121653Y104134D01*
Y99213D02*
Y104134D01*
X119685Y106102D02*
Y109843D01*
X125591Y103543D02*
X127165Y105118D01*
X127756Y103470D02*
X129404Y105118D01*
X127756Y99410D02*
Y103470D01*
X127165Y105118D02*
Y109843D01*
X119685D02*
X119685D01*
X108661Y116535D02*
X109055Y116929D01*
X92716Y125000D02*
X92913Y125197D01*
X49016Y85433D02*
X49213Y85236D01*
X103779Y21024D02*
X104016D01*
X126299Y109921D02*
X126378Y109843D01*
X127953Y113779D02*
X130315Y111417D01*
X116535Y106558D02*
X117717Y105377D01*
Y99213D02*
Y105377D01*
X126378Y113779D02*
X127953D01*
X115551Y99410D02*
X115748Y99213D01*
X115551Y99410D02*
Y103999D01*
X112992Y106558D02*
X115551Y103999D01*
X112992Y106558D02*
Y110236D01*
X113779Y99213D02*
Y103543D01*
X109055Y108268D02*
X113779Y103543D01*
X109055Y108268D02*
Y110236D01*
X105905Y116535D02*
X106299Y116929D01*
X103639Y106890D02*
X107677Y102851D01*
X94685Y106890D02*
X103639D01*
X92913Y108661D02*
X94685Y106890D01*
X104544Y109921D02*
X111614Y102851D01*
X102284Y109921D02*
X104544D01*
X111614Y102525D02*
Y102851D01*
Y102525D02*
X111811Y102328D01*
X101969Y110236D02*
X102284Y109921D01*
X86559Y125000D02*
X86756Y125197D01*
X107677Y99410D02*
Y102851D01*
X92913Y108661D02*
Y112992D01*
X107677Y99410D02*
X107874Y99213D01*
X48819Y76575D02*
X49213Y76968D01*
X35728Y76870D02*
X36220Y76378D01*
X61811Y76378D02*
X61811Y76378D01*
X38583Y6299D02*
X38976Y6693D01*
X18504Y10236D02*
X18701Y10433D01*
X18504Y42520D02*
X18898Y42913D01*
X18504Y26969D02*
X18701Y26772D01*
X22441Y35433D02*
X22835Y35827D01*
X48425Y10630D02*
X48524Y10728D01*
X48425Y30945D02*
X48524Y30847D01*
X85827Y26772D02*
X86614Y27559D01*
X92126Y32677D02*
Y32913D01*
X54134Y87598D02*
X54331Y87795D01*
X48524Y47539D02*
X49016Y48031D01*
X138583Y42913D02*
X138878Y42618D01*
Y35827D02*
Y42618D01*
Y35827D02*
X145571D01*
X138878Y31890D02*
X145571D01*
X136221D02*
X138878D01*
X132283Y35827D02*
X136221Y31890D01*
X132283Y35827D02*
Y42913D01*
X43701Y76575D02*
X43898Y76378D01*
X84571Y80856D02*
X87155D01*
X84424Y81004D02*
X84571Y80856D01*
X84252Y95086D02*
X88885Y90453D01*
X84252Y95086D02*
Y95669D01*
X48819Y76575D02*
X49016Y76378D01*
X77165Y79921D02*
X77165Y79921D01*
X77165Y66535D02*
X77165Y66535D01*
X77165Y66535D02*
X77165Y66535D01*
X86122Y66831D02*
X93209D01*
X81102Y61811D02*
X86122Y66831D01*
X81102Y59921D02*
Y61811D01*
X81988Y70374D02*
X88380D01*
X81102Y71260D02*
X81988Y70374D01*
X81102Y71260D02*
Y73228D01*
X88380Y70374D02*
X88774Y70768D01*
X93209D01*
X93012Y68602D02*
X93209Y68799D01*
X85667Y68602D02*
X93012D01*
X83600Y66535D02*
X85667Y68602D01*
X81102Y66535D02*
X83600D01*
X83563Y75099D02*
X88380D01*
X88774Y74705D01*
X81102Y77559D02*
X83563Y75099D01*
X81102Y77559D02*
Y79921D01*
X88878Y64862D02*
X93209D01*
X86221Y62205D02*
X88878Y64862D01*
X89665Y62894D02*
X93209D01*
X88878Y62106D02*
X89665Y62894D01*
X88878Y56791D02*
Y62106D01*
X88976Y76673D02*
X93209D01*
X87697Y77953D02*
X88976Y76673D01*
X89370Y78642D02*
X93209D01*
X87155Y80856D02*
X89370Y78642D01*
X87230Y83144D02*
Y83366D01*
X88774Y74705D02*
X93209D01*
X83071Y90551D02*
X86559D01*
X88626Y88484D01*
X88885Y90453D02*
X93209D01*
X88626Y88484D02*
X93209D01*
X87155Y86614D02*
X93110D01*
X93209Y86516D01*
X87230Y83144D02*
X89567Y80807D01*
X81102Y100787D02*
X85827D01*
X87402Y94331D02*
Y96457D01*
Y94331D02*
X89311Y92421D01*
X93209D01*
X85827Y77953D02*
X87697D01*
X89567Y80807D02*
X93012D01*
X93209Y80610D01*
X87402Y72736D02*
X93209D01*
X91305Y103706D02*
X99050D01*
X88386Y100787D02*
X91305Y103706D01*
X85827Y100787D02*
X88386D01*
X99050Y103706D02*
X100000Y102756D01*
X85827Y104724D02*
X86417Y105315D01*
X102132D01*
X103740Y103706D01*
Y99410D02*
Y103706D01*
Y99410D02*
X103937Y99213D01*
X100000D02*
Y102756D01*
Y99213D02*
X101969D01*
X111811D02*
Y102328D01*
X125591Y99213D02*
Y103543D01*
X117717Y99213D02*
X117913Y99410D01*
X119685Y99213D02*
X121653D01*
X101181Y36614D02*
X103937D01*
X100394Y37402D02*
X101181Y36614D01*
X100394Y37402D02*
Y39370D01*
X103937Y36614D02*
X107480D01*
X116141Y39370D02*
Y53347D01*
X87402Y39370D02*
Y43504D01*
X92126Y50787D02*
X98560D01*
X87402Y46063D02*
X92126Y50787D01*
X87402Y43504D02*
Y46063D01*
X100197Y43504D02*
X100394Y43307D01*
X95276Y43504D02*
X100197D01*
X91339D02*
X95276D01*
X98560Y50787D02*
X100000Y52227D01*
Y56102D01*
X94882Y49213D02*
X99213D01*
X91339Y45669D02*
X94882Y49213D01*
X91339Y43504D02*
Y45669D01*
X99213Y49213D02*
X101969Y51969D01*
Y56102D01*
X101417Y47638D02*
Y48189D01*
X103937Y50708D01*
Y56102D01*
X105118Y49662D02*
X105905Y50450D01*
X105118Y45669D02*
Y49662D01*
X105905Y50450D02*
Y56102D01*
X107874Y50191D02*
Y56102D01*
X106693Y49010D02*
X107874Y50191D01*
X106693Y47054D02*
Y49010D01*
X106693Y47053D02*
X106693Y47054D01*
X111417Y49010D02*
Y51766D01*
X109646Y48622D02*
Y55906D01*
X109055Y48031D02*
X109646Y48622D01*
X106693Y47053D02*
X107480Y46266D01*
X111417Y49010D02*
X111417Y49010D01*
Y47053D02*
Y49010D01*
X111221Y46856D02*
X111417Y47053D01*
X111221Y43504D02*
Y46856D01*
X107480Y43307D02*
Y46266D01*
X113779Y50787D02*
Y55709D01*
X103740Y55906D02*
X103937Y56102D01*
X102756Y43307D02*
X105118Y45669D01*
X100394Y43307D02*
X102756D01*
X107480Y36614D02*
Y43307D01*
X115748Y53740D02*
X116141Y53347D01*
X111811Y52160D02*
Y56102D01*
X111417Y51766D02*
X111811Y52160D01*
X111221Y43504D02*
X111417Y43307D01*
Y36614D02*
Y43307D01*
X109646Y55906D02*
X109843Y56102D01*
X115748Y53740D02*
Y56102D01*
X113583Y55906D02*
X113779Y56102D01*
X119193Y40945D02*
X123228D01*
X118996Y41142D02*
X119193Y40945D01*
X118996Y41142D02*
Y41240D01*
X117717Y42520D02*
X118996Y41240D01*
X117717Y42520D02*
Y56102D01*
X119882Y49432D02*
Y55906D01*
Y49432D02*
X120079Y49235D01*
X119685Y56102D02*
X119882Y55906D01*
X121850Y51175D02*
Y55906D01*
Y51175D02*
X122047Y50978D01*
Y50923D02*
Y50978D01*
Y50923D02*
X123228Y49741D01*
X121653Y56102D02*
X121850Y55906D01*
X123228Y44882D02*
Y49741D01*
X123622Y51575D02*
X132283Y42913D01*
X123622Y51575D02*
Y56102D01*
X148031Y50000D02*
X149606D01*
X140945Y42913D02*
X148031Y50000D01*
X138583Y42913D02*
X140945D01*
X146457Y44882D02*
X149606Y48031D01*
X125591Y51968D02*
X134646Y42913D01*
X125591Y51968D02*
Y56102D01*
X137008Y47244D02*
X138583Y45669D01*
X132975Y47244D02*
X137008D01*
X127756Y52464D02*
X132975Y47244D01*
X138583Y42913D02*
Y45669D01*
X127756Y52464D02*
Y53836D01*
X127559Y54032D02*
X127756Y53836D01*
X127559Y54032D02*
Y56102D01*
X129527Y102835D02*
X130163Y103470D01*
X129527Y99213D02*
Y102835D01*
X144095Y59449D02*
Y61024D01*
Y54331D02*
Y59449D01*
X136319Y76575D02*
X144095D01*
X149409D01*
X146850Y73622D02*
X147638Y74410D01*
X149606D01*
X141634Y72539D02*
X144095Y70079D01*
X136516Y72539D02*
X141634D01*
X140059Y68602D02*
X144095Y64567D01*
X136516Y68602D02*
X140059D01*
X136319Y72736D02*
X136516Y72539D01*
X144095Y64567D02*
X146457Y62205D01*
Y55315D02*
Y62205D01*
X140453Y64665D02*
X144095Y61024D01*
X146457Y107087D02*
X149606D01*
X145276Y108268D02*
X146457Y107087D01*
X152756Y101181D02*
X156693D01*
X158268Y99606D01*
Y96220D02*
Y99606D01*
Y96220D02*
X164567Y89921D01*
X162913Y101575D02*
X164567Y99921D01*
X162205Y101575D02*
X162913D01*
X160630Y103150D02*
X162205Y101575D01*
X152756Y103150D02*
X160630D01*
X159764Y105118D02*
X164567Y109921D01*
X152756Y105118D02*
X159764D01*
X158268Y113622D02*
X164567Y119921D01*
X158268Y109055D02*
Y113622D01*
X156299Y107087D02*
X158268Y109055D01*
X152756Y107087D02*
X156299D01*
X149606Y48031D02*
X152756D01*
X154033Y49803D02*
X155512Y48324D01*
Y28976D02*
Y48324D01*
Y28976D02*
X164567Y19921D01*
X157087Y37402D02*
X164567Y29921D01*
X157087Y37402D02*
Y48976D01*
X152953Y49803D02*
X154033D01*
X152756Y50000D02*
X152953Y49803D01*
X159055Y45433D02*
Y49235D01*
X152953Y53740D02*
X154550D01*
X152953Y51772D02*
X154291D01*
X157087Y48976D01*
X154550Y53740D02*
X159055Y49235D01*
X152756Y51968D02*
X152953Y51772D01*
X159055Y45433D02*
X164567Y39921D01*
X152756Y53937D02*
X152953Y53740D01*
X144095Y54331D02*
X146457Y51968D01*
X149606D01*
X136516Y64665D02*
X140453D01*
X136319Y64862D02*
X136516Y64665D01*
X146457Y55315D02*
X147835Y53937D01*
X149606D01*
X136319Y68799D02*
X136516Y68602D01*
X146457Y93903D02*
Y99606D01*
X143892Y91339D02*
X146457Y93903D01*
X143780Y95748D02*
Y97638D01*
X140453Y92421D02*
X143780Y95748D01*
X148327Y80315D02*
X149606D01*
X144095Y84547D02*
X148327Y80315D01*
X136319Y80610D02*
X144193D01*
X146260Y78543D01*
X149409D01*
X136319Y84547D02*
X144095D01*
X146457Y99606D02*
X148031Y101181D01*
X149606D01*
X141037Y88484D02*
X143892Y91339D01*
X143780Y99257D02*
X147475Y102953D01*
X143780Y97638D02*
Y99257D01*
X149409Y102953D02*
X149606Y103150D01*
X147475Y102953D02*
X149409D01*
X136319Y92421D02*
X140453D01*
X136319Y88484D02*
X141037D01*
X152756Y76181D02*
X155610D01*
X159055Y65433D02*
X164567Y59921D01*
X159055Y65433D02*
Y72736D01*
X155118Y74410D02*
X157480Y72047D01*
Y57008D02*
Y72047D01*
Y57008D02*
X164567Y49921D01*
X152756Y74410D02*
X155118D01*
X155610Y76181D02*
X159055Y72736D01*
X162835Y69921D02*
Y71417D01*
X156102Y78150D02*
X162835Y71417D01*
X152953Y78150D02*
X156102D01*
X152756Y76181D02*
Y76378D01*
X162835Y69921D02*
X164567D01*
X152756Y78347D02*
X152953Y78150D01*
X164173Y80315D02*
X164567Y79921D01*
X152756Y80315D02*
X164173D01*
X149409Y76575D02*
X149606Y76378D01*
X136319Y76575D02*
Y76673D01*
X149409Y78543D02*
X149606Y78347D01*
X127559Y99213D02*
X127756Y99410D01*
D12*
X34646Y6693D02*
X38189D01*
X86614Y20079D02*
Y23622D01*
X18504Y5118D02*
Y10236D01*
X18701Y10433D02*
X27165D01*
X18701Y26772D02*
X27165D01*
X38976Y10630D02*
Y19685D01*
D15*
X92913Y125197D02*
D03*
Y112992D02*
D03*
D16*
X107480Y43307D02*
D03*
X111417D02*
D03*
X107480Y36614D02*
D03*
X111417D02*
D03*
X87402Y43504D02*
D03*
X91339D02*
D03*
X112992Y116929D02*
D03*
X109055D02*
D03*
X112992Y110236D02*
D03*
X109055D02*
D03*
X58268Y87795D02*
D03*
X54331D02*
D03*
X134646Y42913D02*
D03*
X138583D02*
D03*
X81102Y59921D02*
D03*
X77165D02*
D03*
X81102Y73228D02*
D03*
X77165D02*
D03*
X81102Y66535D02*
D03*
X77165D02*
D03*
Y79921D02*
D03*
X81102D02*
D03*
X22835Y35433D02*
D03*
X18898D02*
D03*
D17*
X145571Y31890D02*
D03*
Y35827D02*
D03*
X100394Y39370D02*
D03*
Y43307D02*
D03*
X126378Y113779D02*
D03*
Y109843D02*
D03*
X119685Y113779D02*
D03*
Y109843D02*
D03*
X101969Y114173D02*
D03*
Y110236D02*
D03*
X85827Y100787D02*
D03*
Y104724D02*
D03*
X48425Y34882D02*
D03*
Y30945D02*
D03*
Y6693D02*
D03*
Y10630D02*
D03*
X138878Y31890D02*
D03*
Y35827D02*
D03*
X123228Y44882D02*
D03*
Y40945D02*
D03*
X18898Y42913D02*
D03*
Y46850D02*
D03*
X86614Y23622D02*
D03*
Y27559D02*
D03*
X38976Y6693D02*
D03*
Y10630D02*
D03*
X48524Y18504D02*
D03*
Y22441D02*
D03*
D18*
X59449Y27953D02*
D03*
Y11811D02*
D03*
D19*
X129527Y56102D02*
D03*
X127559D02*
D03*
X125591D02*
D03*
X123622D02*
D03*
X121653D02*
D03*
X119685D02*
D03*
X117717D02*
D03*
X115748D02*
D03*
X113779D02*
D03*
X111811D02*
D03*
X109843D02*
D03*
X107874D02*
D03*
X105905D02*
D03*
X103937D02*
D03*
X101969D02*
D03*
X100000D02*
D03*
Y99213D02*
D03*
X101969D02*
D03*
X103937D02*
D03*
X105905D02*
D03*
X107874D02*
D03*
X109843D02*
D03*
X111811D02*
D03*
X113779D02*
D03*
X115748D02*
D03*
X117717D02*
D03*
X119685D02*
D03*
X121653D02*
D03*
X123622D02*
D03*
X125591D02*
D03*
X127559D02*
D03*
X129527D02*
D03*
D20*
X93209Y62894D02*
D03*
Y64862D02*
D03*
Y66831D02*
D03*
Y68799D02*
D03*
Y70768D02*
D03*
Y72736D02*
D03*
Y74705D02*
D03*
Y76673D02*
D03*
Y78642D02*
D03*
Y80610D02*
D03*
Y82579D02*
D03*
Y84547D02*
D03*
Y86516D02*
D03*
Y88484D02*
D03*
Y90453D02*
D03*
Y92421D02*
D03*
X136319D02*
D03*
Y90453D02*
D03*
Y88484D02*
D03*
Y86516D02*
D03*
Y84547D02*
D03*
Y82579D02*
D03*
Y80610D02*
D03*
Y78642D02*
D03*
Y76673D02*
D03*
Y74705D02*
D03*
Y72736D02*
D03*
Y70768D02*
D03*
Y68799D02*
D03*
Y66831D02*
D03*
Y64862D02*
D03*
Y62894D02*
D03*
D21*
X33661Y48031D02*
D03*
D22*
X36220D02*
D03*
X38780D02*
D03*
X41339D02*
D03*
X43898D02*
D03*
X46457D02*
D03*
X49016D02*
D03*
X51575D02*
D03*
X54134D02*
D03*
X56693D02*
D03*
X59252D02*
D03*
X61811D02*
D03*
X64370D02*
D03*
X66929D02*
D03*
X33661Y76378D02*
D03*
X36220D02*
D03*
X38780D02*
D03*
X41339D02*
D03*
X43898D02*
D03*
X46457D02*
D03*
X49016D02*
D03*
X51575D02*
D03*
X54134D02*
D03*
X56693D02*
D03*
X59252D02*
D03*
X61811D02*
D03*
X64370D02*
D03*
X66929D02*
D03*
D23*
X149606Y76378D02*
D03*
X152756D02*
D03*
Y74410D02*
D03*
X149606D02*
D03*
Y78347D02*
D03*
X152756D02*
D03*
Y80315D02*
D03*
X149606D02*
D03*
Y50000D02*
D03*
X152756D02*
D03*
Y48031D02*
D03*
X149606D02*
D03*
Y51968D02*
D03*
X152756D02*
D03*
Y53937D02*
D03*
X149606D02*
D03*
X149606Y103150D02*
D03*
X152756D02*
D03*
Y101181D02*
D03*
X149606D02*
D03*
Y105118D02*
D03*
X152756D02*
D03*
Y107087D02*
D03*
X149606D02*
D03*
D24*
X79724Y26772D02*
D03*
X71260D02*
D03*
X79724Y10433D02*
D03*
X71260D02*
D03*
X18701D02*
D03*
X27165D02*
D03*
X18701Y26772D02*
D03*
X27165D02*
D03*
D25*
X38976Y19685D02*
D03*
Y26378D02*
D03*
D26*
X14173Y78543D02*
D03*
D27*
Y86024D02*
D03*
X6299Y82284D02*
D03*
D28*
X21063Y101378D02*
D03*
Y107283D02*
D03*
Y119095D02*
D03*
D29*
X17520Y125000D02*
D03*
X8465D02*
D03*
X17520Y95472D02*
D03*
X8465D02*
D03*
D30*
X33465Y111063D02*
D03*
X60236D02*
D03*
D31*
X42913Y119921D02*
D03*
X50787D02*
D03*
D52*
X43701Y76575D02*
X43898Y76772D01*
X41339Y83071D02*
Y88976D01*
X39764Y90551D02*
X41339Y88976D01*
Y76378D02*
Y83071D01*
X39764Y90551D02*
Y96063D01*
X44488Y89961D02*
X49213Y85236D01*
X44488Y89961D02*
Y96063D01*
X49016Y77165D02*
Y85433D01*
X51575Y76378D02*
Y93903D01*
X43898Y76772D02*
Y85236D01*
X56693Y82284D02*
X58268Y83858D01*
X56693Y76378D02*
Y82284D01*
X54134Y76378D02*
Y87598D01*
X38780Y76378D02*
Y87598D01*
X46457Y76378D02*
Y82284D01*
X49016Y77165D02*
X49213Y76968D01*
X35039Y83858D02*
X36220Y82677D01*
Y76378D02*
Y82677D01*
X46850Y42338D02*
X49016Y44503D01*
Y48031D01*
X71260Y26772D02*
Y31496D01*
X28740Y81890D02*
X32518D01*
X33661Y80747D01*
Y76378D02*
Y80747D01*
X61811Y76378D02*
Y98819D01*
X22835Y35827D02*
X31102D01*
X38976Y38127D02*
X41339Y40489D01*
X38976Y26378D02*
Y38127D01*
X41339Y40489D02*
Y42126D01*
X50394Y6693D02*
X52756Y4331D01*
X48425Y6693D02*
X50394D01*
X48425Y39764D02*
X51575Y42913D01*
X48425Y34882D02*
Y39764D01*
X48524Y10728D02*
Y18504D01*
Y22441D02*
Y30847D01*
X59449Y23622D02*
Y27953D01*
X58268Y22441D02*
X59449Y23622D01*
X48524Y22441D02*
X58268D01*
X59449Y11811D02*
Y16535D01*
X57480Y18504D02*
X59449Y16535D01*
X48524Y18504D02*
X57480D01*
X59252Y43504D02*
X71260Y31496D01*
X59252Y43504D02*
Y48031D01*
X59449Y27953D02*
Y35827D01*
X54134Y41142D02*
X59449Y35827D01*
X54134Y41142D02*
Y48031D01*
X59449Y11811D02*
X64961D01*
X66142Y12992D01*
Y32677D01*
X56693Y42126D02*
X66142Y32677D01*
X56693Y42126D02*
Y48031D01*
X58268Y83858D02*
Y87795D01*
X51575Y42913D02*
Y48031D01*
X31102Y35827D02*
X33661Y38386D01*
Y48031D01*
X43898Y35827D02*
Y48031D01*
X41339Y42126D02*
Y48031D01*
X36220Y38583D02*
X38780Y41142D01*
Y48031D01*
X36220Y42913D02*
Y48031D01*
D53*
X18898Y27362D02*
Y35433D01*
Y35827D02*
Y42913D01*
Y46850D02*
Y50984D01*
X105905Y116535D02*
X108661D01*
X86559Y125000D02*
X92716D01*
X66929Y76378D02*
Y81496D01*
X112992Y110236D02*
Y116929D01*
X109055Y110236D02*
Y116929D01*
X101969Y114173D02*
Y117323D01*
X6299Y82284D02*
Y85433D01*
X64370Y43110D02*
X65354Y42126D01*
X64370Y43110D02*
Y48031D01*
X77165Y55709D02*
Y59921D01*
Y73228D02*
Y79921D01*
Y66535D02*
Y73228D01*
Y59921D02*
Y66535D01*
D54*
X119685Y109843D02*
X126221D01*
X92126Y32677D02*
X103779Y21024D01*
X83268Y10433D02*
X85039Y8661D01*
X79724Y10433D02*
X83268D01*
X119764Y113779D02*
X126378D01*
D55*
X104016Y11024D02*
D03*
X114016D02*
D03*
X124016D02*
D03*
X104016Y21024D02*
D03*
X114016D02*
D03*
X124016D02*
D03*
X164567Y109921D02*
D03*
Y99921D02*
D03*
Y89921D02*
D03*
Y79921D02*
D03*
Y69921D02*
D03*
Y59921D02*
D03*
Y49921D02*
D03*
Y39921D02*
D03*
Y29921D02*
D03*
Y19921D02*
D03*
Y9921D02*
D03*
D56*
X12992Y116142D02*
D03*
Y104331D02*
D03*
D57*
X164567Y119921D02*
D03*
D58*
X75669Y117087D02*
D03*
X81850Y116890D02*
D03*
X70039Y115748D02*
D03*
X134646Y107480D02*
D03*
X138189Y107874D02*
D03*
X123622Y105905D02*
D03*
X41339Y83071D02*
D03*
X39764Y96063D02*
D03*
X44488D02*
D03*
X49016Y85433D02*
D03*
X43898Y85236D02*
D03*
X66929Y81496D02*
D03*
X56693Y82284D02*
D03*
X38780Y87598D02*
D03*
X46457Y82284D02*
D03*
X35039Y83858D02*
D03*
X34646Y6693D02*
D03*
X27165Y32677D02*
D03*
X42913Y128740D02*
D03*
X86614Y20079D02*
D03*
X85039Y8661D02*
D03*
X117323Y126378D02*
D03*
X124016D02*
D03*
X18898Y50984D02*
D03*
X151969Y120472D02*
D03*
X148819D02*
D03*
X145669D02*
D03*
X130709Y114567D02*
D03*
X116535Y106558D02*
D03*
X101969Y117323D02*
D03*
X134055Y114567D02*
D03*
X159055Y129921D02*
D03*
X140551Y129528D02*
D03*
Y101181D02*
D03*
X105905Y116535D02*
D03*
X86559Y125000D02*
D03*
X81890Y107480D02*
D03*
X75197Y107480D02*
D03*
X58752Y116051D02*
D03*
X58661Y119791D02*
D03*
X43701Y106693D02*
D03*
X33465Y123622D02*
D03*
X38976Y106693D02*
D03*
X33465Y107874D02*
D03*
X17520Y95472D02*
D03*
X8465D02*
D03*
X17520Y125000D02*
D03*
X8465D02*
D03*
X26378Y116717D02*
D03*
Y119595D02*
D03*
Y122441D02*
D03*
X6299Y85433D02*
D03*
X51575Y93903D02*
D03*
X14449Y23898D02*
D03*
X43701Y5512D02*
D03*
X11417D02*
D03*
Y60197D02*
D03*
X43701D02*
D03*
X23622Y79134D02*
D03*
Y55512D02*
D03*
X61811Y98819D02*
D03*
X18504Y5118D02*
D03*
X28740Y81890D02*
D03*
X52756Y4331D02*
D03*
X92126Y32677D02*
D03*
X51575Y42913D02*
D03*
X31102Y35827D02*
D03*
X46850Y42338D02*
D03*
X41339Y42126D02*
D03*
X43898Y35827D02*
D03*
X65354Y42126D02*
D03*
X84424Y81004D02*
D03*
X84252Y95669D02*
D03*
X36220Y38583D02*
D03*
Y42913D02*
D03*
X77165Y55709D02*
D03*
X86221Y62205D02*
D03*
X88878Y56791D02*
D03*
X87230Y83366D02*
D03*
X87155Y86614D02*
D03*
X83071Y90551D02*
D03*
X81102Y100787D02*
D03*
X87402Y96457D02*
D03*
X85827Y77953D02*
D03*
X87402Y72736D02*
D03*
X103937Y39921D02*
D03*
X103937Y36614D02*
D03*
X116141Y39370D02*
D03*
X87402D02*
D03*
X95276D02*
D03*
Y43504D02*
D03*
X101417Y47638D02*
D03*
X109055Y48031D02*
D03*
X113779Y50787D02*
D03*
X118996Y41142D02*
D03*
X120079Y49235D02*
D03*
X146457Y44882D02*
D03*
X144095Y59449D02*
D03*
Y70079D02*
D03*
Y64567D02*
D03*
X145276Y108268D02*
D03*
X144193Y80610D02*
D03*
X144095Y76575D02*
D03*
Y84547D02*
D03*
X143780Y97638D02*
D03*
X143892Y91339D02*
D03*
M02*
