G04*
G04 #@! TF.GenerationSoftware,Altium Limited,Altium Designer,18.1.9 (240)*
G04*
G04 Layer_Physical_Order=4*
G04 Layer_Color=16711680*
%FSLAX25Y25*%
%MOIN*%
G70*
G01*
G75*
%ADD11C,0.00787*%
%ADD15R,0.06693X0.04331*%
%ADD16R,0.02362X0.02362*%
%ADD17R,0.02362X0.02362*%
%ADD53C,0.01575*%
%ADD55C,0.07874*%
%ADD56C,0.03937*%
%ADD57R,0.07874X0.07874*%
%ADD58C,0.02362*%
%ADD59R,0.02362X0.04331*%
%ADD60O,0.02362X0.04331*%
%ADD61R,0.02362X0.03150*%
%ADD62R,0.03150X0.02362*%
%ADD63R,0.03740X0.01575*%
%ADD64R,0.07874X0.05906*%
%ADD65R,0.04724X0.03150*%
%ADD66R,0.03937X0.02756*%
%ADD67O,0.03937X0.02756*%
G36*
X60925Y112205D02*
X59449Y113681D01*
X54528D01*
Y110933D01*
X57571D01*
X59153Y109350D01*
X60925D01*
Y112205D01*
D02*
G37*
G36*
X68117Y124409D02*
X81496Y124409D01*
X83071Y122835D01*
Y114173D01*
X71941Y114173D01*
X68898Y110236D01*
X68504Y109449D01*
X66133Y112610D01*
X68117Y124409D01*
D02*
G37*
G36*
X144193Y125984D02*
X155905D01*
Y115264D01*
X146547Y115264D01*
X144193Y117618D01*
Y125984D01*
D02*
G37*
D11*
X45276Y71260D02*
X81890D01*
X43898Y72638D02*
X45276Y71260D01*
X41339Y83071D02*
X41535Y83268D01*
Y87598D01*
X42126Y88189D01*
X67593D01*
X41148Y90551D02*
X68110D01*
X36220Y92126D02*
X46457D01*
X35039Y93701D02*
X45804D01*
X33465Y96063D02*
X39764D01*
X32382Y98425D02*
X42126D01*
X17323Y79921D02*
X33465Y96063D01*
X5512Y71555D02*
X32382Y98425D01*
X42126D02*
X44488Y96063D01*
X38195Y87598D02*
X41148Y90551D01*
X68110D02*
X72539Y86122D01*
X49016Y85433D02*
X68122D01*
X43898Y72638D02*
Y85236D01*
X38195Y87598D02*
X38780D01*
X68122Y85433D02*
X70583Y82973D01*
X67593Y88189D02*
X71235Y84547D01*
X20197Y32677D02*
X27165D01*
X20079Y32559D02*
X20197Y32677D01*
X124016Y122622D02*
Y122835D01*
X17323Y54331D02*
Y79921D01*
X15748Y52756D02*
X17323Y54331D01*
X15748Y29528D02*
Y52756D01*
X130315Y118898D02*
X130709Y118504D01*
X154252Y128527D02*
X154252Y128528D01*
X130102Y118685D02*
X130315Y118898D01*
X117323Y118898D02*
X117535Y118685D01*
X129921Y129134D02*
X130315Y129528D01*
X61024Y111721D02*
X61811Y110933D01*
X54331Y112311D02*
X54921Y111721D01*
X31102Y89764D02*
X35039Y93701D01*
X32677Y88583D02*
X36220Y92126D01*
X45804Y93701D02*
X49944Y97840D01*
X46457Y92126D02*
X50596Y96266D01*
X51575Y93903D02*
X67120D01*
X50596Y96266D02*
X83655D01*
X49944Y97840D02*
X60833D01*
X67120Y93903D02*
X73327Y87697D01*
X60833Y97840D02*
X61811Y98819D01*
X83655Y96266D02*
X84252Y95669D01*
X72539Y86122D02*
X84307D01*
X71235Y84547D02*
X80880D01*
X70583Y82973D02*
X77165D01*
X31102Y44094D02*
Y89764D01*
X32677Y42126D02*
Y88583D01*
X17047Y28228D02*
X18110D01*
X15748Y29528D02*
X17047Y28228D01*
X5512Y24803D02*
Y71555D01*
Y24803D02*
X10748Y19567D01*
X20079D01*
X35827Y38189D02*
X36220Y38583D01*
X30124Y38189D02*
X35827D01*
X28825Y36890D02*
X30124Y38189D01*
X20079Y36890D02*
X28825D01*
X20079Y41221D02*
X28228D01*
X31102Y44094D01*
X32677Y42126D02*
X36220Y38583D01*
X92126Y32677D02*
Y61024D01*
X116142Y3150D02*
X124016Y11024D01*
X63779Y3150D02*
X116142D01*
X31102Y35827D02*
X63779Y3150D01*
X74213Y5512D02*
X108504D01*
X43898Y35827D02*
X74213Y5512D01*
X89494Y26772D02*
X108268D01*
X70202Y46063D02*
X89494Y26772D01*
X45276Y46063D02*
X70202D01*
X108268Y26772D02*
X114016Y21024D01*
X41339Y42126D02*
X45276Y46063D01*
X46850Y42338D02*
X78164Y11024D01*
X108504Y5512D02*
X114016Y11024D01*
X78164D02*
X104016D01*
X67323Y52362D02*
X77165Y62205D01*
X45669Y52362D02*
X67323D01*
X36220Y42913D02*
X45669Y52362D01*
X81890Y71260D02*
X92126Y61024D01*
X77165Y82973D02*
X87402Y72736D01*
X77165Y62205D02*
X86221D01*
X86097Y87672D02*
X86098Y87673D01*
X73327Y87697D02*
X86098D01*
X80880Y84547D02*
X84424Y81004D01*
X84307Y86122D02*
X86177Y84252D01*
X86344D02*
X87230Y83366D01*
X86177Y84252D02*
X86344D01*
X86098Y87673D02*
Y87697D01*
X86097Y87672D02*
X87155Y86614D01*
X144095Y59449D02*
X149213D01*
X146063Y62598D02*
X149213D01*
X144095Y64567D02*
X146063Y62598D01*
X144095Y64567D02*
X144095D01*
X144095Y67908D02*
Y70079D01*
X146254Y65748D02*
X149213D01*
X144095Y67908D02*
X146254Y65748D01*
X146457Y70473D02*
Y72047D01*
X144095Y74410D02*
X146457Y72047D01*
X144095Y74410D02*
Y76575D01*
X146457Y70473D02*
X148031Y68898D01*
X149213D01*
X148031Y86221D02*
X149213D01*
X146457Y84646D02*
X148031Y86221D01*
X146457Y82874D02*
Y84646D01*
X144193Y80610D02*
X146457Y82874D01*
X145768Y89370D02*
X149213D01*
X144095Y87697D02*
X145768Y89370D01*
X144095Y84547D02*
Y87697D01*
X145276Y92520D02*
X149213D01*
X144095Y91339D02*
X145276Y92520D01*
X143892Y91339D02*
X144095D01*
X145748Y95669D02*
X149213D01*
X143780Y97638D02*
X145748Y95669D01*
D15*
X23622Y60827D02*
D03*
Y73032D02*
D03*
D16*
X33465Y111721D02*
D03*
X37402D02*
D03*
X65354Y123228D02*
D03*
X69291D02*
D03*
X33465Y119791D02*
D03*
X37402D02*
D03*
X138189Y112598D02*
D03*
X142126D02*
D03*
D17*
X81890Y111327D02*
D03*
Y115264D02*
D03*
X75197Y111327D02*
D03*
Y115264D02*
D03*
X117323Y122835D02*
D03*
Y118898D02*
D03*
X124016Y122622D02*
D03*
Y118685D02*
D03*
X147244Y128527D02*
D03*
Y124591D02*
D03*
X154252Y128528D02*
D03*
Y124591D02*
D03*
X151575Y112598D02*
D03*
Y116535D02*
D03*
D53*
X124016Y122835D02*
X130315D01*
X117323D02*
X124016D01*
X54331Y112311D02*
X58268D01*
X59646Y110933D01*
X61811D01*
X37402Y111721D02*
X40157D01*
X40748Y112311D01*
X44094D01*
X140551Y101181D02*
X145276Y105905D01*
Y108268D01*
X117323Y122835D02*
Y126378D01*
X124016Y122835D02*
Y126378D01*
X130709Y114567D02*
Y118504D01*
X136024Y112598D02*
X138189D01*
X134055Y114567D02*
X136024Y112598D01*
X157661Y128528D02*
X159055Y129921D01*
X154252Y128528D02*
X157661D01*
X147244Y128527D02*
X154252D01*
X137795Y129528D02*
X140551D01*
X142126Y112598D02*
X151575D01*
X142126D02*
Y116929D01*
X140157Y118898D02*
X142126Y116929D01*
X137795Y118898D02*
X140157D01*
X124016Y118685D02*
X130102D01*
X117535D02*
X124016D01*
X114567Y118898D02*
X117323D01*
X109843Y123622D02*
X114567Y118898D01*
X109843Y129134D02*
X129921D01*
X135917Y124591D02*
X147244D01*
X134055Y122728D02*
X135917Y124591D01*
X134055Y118898D02*
Y122728D01*
Y126575D02*
Y129528D01*
X130315Y122835D02*
X134055Y126575D01*
X81890Y107480D02*
Y111327D01*
X75197Y107480D02*
Y111327D01*
X54331Y116051D02*
X58752D01*
X54331Y119791D02*
X58661D01*
X38976Y106693D02*
X43701D01*
X45669Y123228D02*
X65354D01*
X44094Y121654D02*
X45669Y123228D01*
X44094Y119791D02*
Y121654D01*
X33465Y119791D02*
Y123622D01*
X37402Y108268D02*
X38976Y106693D01*
X37402Y108268D02*
Y111721D01*
X33465Y107874D02*
Y111721D01*
X37402Y119791D02*
X44094D01*
X14449Y23898D02*
X20079D01*
X23622Y73032D02*
Y79134D01*
Y55512D02*
Y60827D01*
X145276Y108268D02*
X149213D01*
X155905Y101575D01*
Y95669D02*
Y101575D01*
Y92520D02*
Y95669D01*
Y89370D02*
Y92520D01*
Y86221D02*
Y89370D01*
Y68898D02*
Y86221D01*
Y65748D02*
Y68898D01*
Y62598D02*
Y65748D01*
Y59449D02*
Y62598D01*
D55*
X104016Y11024D02*
D03*
X114016D02*
D03*
X124016D02*
D03*
X104016Y21024D02*
D03*
X114016D02*
D03*
X124016D02*
D03*
X164567Y109921D02*
D03*
Y99921D02*
D03*
Y89921D02*
D03*
Y79921D02*
D03*
Y69921D02*
D03*
Y59921D02*
D03*
Y49921D02*
D03*
Y39921D02*
D03*
Y29921D02*
D03*
Y19921D02*
D03*
Y9921D02*
D03*
D56*
X12992Y116142D02*
D03*
Y104331D02*
D03*
D57*
X164567Y119921D02*
D03*
D58*
X75669Y117087D02*
D03*
X81850Y116890D02*
D03*
X70039Y115748D02*
D03*
X134646Y107480D02*
D03*
X138189Y107874D02*
D03*
X123622Y105905D02*
D03*
X41339Y83071D02*
D03*
X39764Y96063D02*
D03*
X44488D02*
D03*
X49016Y85433D02*
D03*
X43898Y85236D02*
D03*
X66929Y81496D02*
D03*
X56693Y82284D02*
D03*
X38780Y87598D02*
D03*
X46457Y82284D02*
D03*
X35039Y83858D02*
D03*
X34646Y6693D02*
D03*
X27165Y32677D02*
D03*
X42913Y128740D02*
D03*
X86614Y20079D02*
D03*
X85039Y8661D02*
D03*
X117323Y126378D02*
D03*
X124016D02*
D03*
X18898Y50984D02*
D03*
X151969Y120472D02*
D03*
X148819D02*
D03*
X145669D02*
D03*
X130709Y114567D02*
D03*
X116535Y106558D02*
D03*
X101969Y117323D02*
D03*
X134055Y114567D02*
D03*
X159055Y129921D02*
D03*
X140551Y129528D02*
D03*
Y101181D02*
D03*
X105905Y116535D02*
D03*
X86559Y125000D02*
D03*
X81890Y107480D02*
D03*
X75197Y107480D02*
D03*
X58752Y116051D02*
D03*
X58661Y119791D02*
D03*
X43701Y106693D02*
D03*
X33465Y123622D02*
D03*
X38976Y106693D02*
D03*
X33465Y107874D02*
D03*
X17520Y95472D02*
D03*
X8465D02*
D03*
X17520Y125000D02*
D03*
X8465D02*
D03*
X26378Y116717D02*
D03*
Y119595D02*
D03*
Y122441D02*
D03*
X6299Y85433D02*
D03*
X51575Y93903D02*
D03*
X14449Y23898D02*
D03*
X43701Y5512D02*
D03*
X11417D02*
D03*
Y60197D02*
D03*
X43701D02*
D03*
X23622Y79134D02*
D03*
Y55512D02*
D03*
X61811Y98819D02*
D03*
X18504Y5118D02*
D03*
X28740Y81890D02*
D03*
X52756Y4331D02*
D03*
X92126Y32677D02*
D03*
X51575Y42913D02*
D03*
X31102Y35827D02*
D03*
X46850Y42338D02*
D03*
X41339Y42126D02*
D03*
X43898Y35827D02*
D03*
X65354Y42126D02*
D03*
X84424Y81004D02*
D03*
X84252Y95669D02*
D03*
X36220Y38583D02*
D03*
Y42913D02*
D03*
X77165Y55709D02*
D03*
X86221Y62205D02*
D03*
X88878Y56791D02*
D03*
X87230Y83366D02*
D03*
X87155Y86614D02*
D03*
X83071Y90551D02*
D03*
X81102Y100787D02*
D03*
X87402Y96457D02*
D03*
X85827Y77953D02*
D03*
X87402Y72736D02*
D03*
X103937Y39921D02*
D03*
X103937Y36614D02*
D03*
X116141Y39370D02*
D03*
X87402D02*
D03*
X95276D02*
D03*
Y43504D02*
D03*
X101417Y47638D02*
D03*
X109055Y48031D02*
D03*
X113779Y50787D02*
D03*
X118996Y41142D02*
D03*
X120079Y49235D02*
D03*
X146457Y44882D02*
D03*
X144095Y59449D02*
D03*
Y70079D02*
D03*
Y64567D02*
D03*
X145276Y108268D02*
D03*
X144193Y80610D02*
D03*
X144095Y76575D02*
D03*
Y84547D02*
D03*
X143780Y97638D02*
D03*
X143892Y91339D02*
D03*
D59*
X130315Y129528D02*
D03*
D60*
X134055D02*
D03*
X137795D02*
D03*
X130315Y118898D02*
D03*
X134055D02*
D03*
X137795D02*
D03*
D61*
X61811Y110933D02*
D03*
X67323D02*
D03*
D62*
X109843Y123622D02*
D03*
Y129134D02*
D03*
D63*
X155905Y68898D02*
D03*
Y65748D02*
D03*
Y62598D02*
D03*
Y59449D02*
D03*
X149213D02*
D03*
Y62598D02*
D03*
Y65748D02*
D03*
Y68898D02*
D03*
X155905Y95669D02*
D03*
Y92520D02*
D03*
Y89370D02*
D03*
Y86221D02*
D03*
X149213D02*
D03*
Y89370D02*
D03*
Y92520D02*
D03*
Y95669D02*
D03*
D64*
X43701Y5512D02*
D03*
X11417D02*
D03*
X43701Y60197D02*
D03*
X11417D02*
D03*
D65*
X20079Y45551D02*
D03*
Y41221D02*
D03*
Y36890D02*
D03*
Y32559D02*
D03*
Y28228D02*
D03*
Y23898D02*
D03*
Y19567D02*
D03*
Y15236D02*
D03*
D66*
X54331Y119791D02*
D03*
D67*
Y116051D02*
D03*
Y112311D02*
D03*
X44094Y119791D02*
D03*
Y112311D02*
D03*
M02*
