G04*
G04 #@! TF.GenerationSoftware,Altium Limited,Altium Designer,18.1.9 (240)*
G04*
G04 Layer_Color=8421504*
%FSLAX25Y25*%
%MOIN*%
G70*
G01*
G75*
%ADD15R,0.06693X0.04331*%
%ADD16R,0.02362X0.02362*%
%ADD17R,0.02362X0.02362*%
%ADD18R,0.09449X0.07480*%
%ADD19R,0.01181X0.06299*%
%ADD20R,0.06299X0.01181*%
%ADD21R,0.01772X0.06890*%
%ADD22O,0.01772X0.06890*%
%ADD23R,0.01575X0.01181*%
%ADD24R,0.02559X0.04134*%
%ADD25R,0.03937X0.04331*%
%ADD26R,0.03543X0.02756*%
%ADD27O,0.03543X0.02756*%
%ADD28R,0.04331X0.02756*%
%ADD29R,0.03150X0.03937*%
%ADD30R,0.06299X0.11811*%
%ADD31R,0.03937X0.21654*%
D15*
X92913Y125197D02*
D03*
Y112992D02*
D03*
D16*
X107480Y43307D02*
D03*
X111417D02*
D03*
X107480Y36614D02*
D03*
X111417D02*
D03*
X87402Y43504D02*
D03*
X91339D02*
D03*
X112992Y116929D02*
D03*
X109055D02*
D03*
X112992Y110236D02*
D03*
X109055D02*
D03*
X58268Y87795D02*
D03*
X54331D02*
D03*
X134646Y42913D02*
D03*
X138583D02*
D03*
X81102Y59921D02*
D03*
X77165D02*
D03*
X81102Y73228D02*
D03*
X77165D02*
D03*
X81102Y66535D02*
D03*
X77165D02*
D03*
Y79921D02*
D03*
X81102D02*
D03*
X22835Y35433D02*
D03*
X18898D02*
D03*
D17*
X145571Y31890D02*
D03*
Y35827D02*
D03*
X100394Y39370D02*
D03*
Y43307D02*
D03*
X126378Y113779D02*
D03*
Y109843D02*
D03*
X119685Y113779D02*
D03*
Y109843D02*
D03*
X101969Y114173D02*
D03*
Y110236D02*
D03*
X85827Y100787D02*
D03*
Y104724D02*
D03*
X48425Y34882D02*
D03*
Y30945D02*
D03*
Y6693D02*
D03*
Y10630D02*
D03*
X138878Y31890D02*
D03*
Y35827D02*
D03*
X123228Y44882D02*
D03*
Y40945D02*
D03*
X18898Y42913D02*
D03*
Y46850D02*
D03*
X86614Y23622D02*
D03*
Y27559D02*
D03*
X38976Y6693D02*
D03*
Y10630D02*
D03*
X48524Y18504D02*
D03*
Y22441D02*
D03*
D18*
X59449Y27953D02*
D03*
Y11811D02*
D03*
D19*
X129527Y56102D02*
D03*
X127559D02*
D03*
X125591D02*
D03*
X123622D02*
D03*
X121653D02*
D03*
X119685D02*
D03*
X117717D02*
D03*
X115748D02*
D03*
X113779D02*
D03*
X111811D02*
D03*
X109843D02*
D03*
X107874D02*
D03*
X105905D02*
D03*
X103937D02*
D03*
X101969D02*
D03*
X100000D02*
D03*
Y99213D02*
D03*
X101969D02*
D03*
X103937D02*
D03*
X105905D02*
D03*
X107874D02*
D03*
X109843D02*
D03*
X111811D02*
D03*
X113779D02*
D03*
X115748D02*
D03*
X117717D02*
D03*
X119685D02*
D03*
X121653D02*
D03*
X123622D02*
D03*
X125591D02*
D03*
X127559D02*
D03*
X129527D02*
D03*
D20*
X93209Y62894D02*
D03*
Y64862D02*
D03*
Y66831D02*
D03*
Y68799D02*
D03*
Y70768D02*
D03*
Y72736D02*
D03*
Y74705D02*
D03*
Y76673D02*
D03*
Y78642D02*
D03*
Y80610D02*
D03*
Y82579D02*
D03*
Y84547D02*
D03*
Y86516D02*
D03*
Y88484D02*
D03*
Y90453D02*
D03*
Y92421D02*
D03*
X136319D02*
D03*
Y90453D02*
D03*
Y88484D02*
D03*
Y86516D02*
D03*
Y84547D02*
D03*
Y82579D02*
D03*
Y80610D02*
D03*
Y78642D02*
D03*
Y76673D02*
D03*
Y74705D02*
D03*
Y72736D02*
D03*
Y70768D02*
D03*
Y68799D02*
D03*
Y66831D02*
D03*
Y64862D02*
D03*
Y62894D02*
D03*
D21*
X33661Y48031D02*
D03*
D22*
X36220D02*
D03*
X38780D02*
D03*
X41339D02*
D03*
X43898D02*
D03*
X46457D02*
D03*
X49016D02*
D03*
X51575D02*
D03*
X54134D02*
D03*
X56693D02*
D03*
X59252D02*
D03*
X61811D02*
D03*
X64370D02*
D03*
X66929D02*
D03*
X33661Y76378D02*
D03*
X36220D02*
D03*
X38780D02*
D03*
X41339D02*
D03*
X43898D02*
D03*
X46457D02*
D03*
X49016D02*
D03*
X51575D02*
D03*
X54134D02*
D03*
X56693D02*
D03*
X59252D02*
D03*
X61811D02*
D03*
X64370D02*
D03*
X66929D02*
D03*
D23*
X149606Y76378D02*
D03*
X152756D02*
D03*
Y74410D02*
D03*
X149606D02*
D03*
Y78347D02*
D03*
X152756D02*
D03*
Y80315D02*
D03*
X149606D02*
D03*
Y50000D02*
D03*
X152756D02*
D03*
Y48031D02*
D03*
X149606D02*
D03*
Y51968D02*
D03*
X152756D02*
D03*
Y53937D02*
D03*
X149606D02*
D03*
X149606Y103150D02*
D03*
X152756D02*
D03*
Y101181D02*
D03*
X149606D02*
D03*
Y105118D02*
D03*
X152756D02*
D03*
Y107087D02*
D03*
X149606D02*
D03*
D24*
X79724Y26772D02*
D03*
X71260D02*
D03*
X79724Y10433D02*
D03*
X71260D02*
D03*
X18701D02*
D03*
X27165D02*
D03*
X18701Y26772D02*
D03*
X27165D02*
D03*
D25*
X38976Y19685D02*
D03*
Y26378D02*
D03*
D26*
X14173Y78543D02*
D03*
D27*
Y86024D02*
D03*
X6299Y82284D02*
D03*
D28*
X21063Y101378D02*
D03*
Y107283D02*
D03*
Y119095D02*
D03*
D29*
X17520Y125000D02*
D03*
X8465D02*
D03*
X17520Y95472D02*
D03*
X8465D02*
D03*
D30*
X33465Y111063D02*
D03*
X60236D02*
D03*
D31*
X42913Y119921D02*
D03*
X50787D02*
D03*
M02*
