M48
;Layer_Color=9474304
;FILE_FORMAT=2:5
INCH,LZ
;TYPE=PLATED
T1F00S00C0.01181
T2F00S00C0.04331
T3F00S00C0.09449
;TYPE=NON_PLATED
T4F00S00C0.03543
%
T01
X0018504Y0005118
X0034646Y0006693
X0043701Y0005512
X0052756Y0004331
X0085039Y0008661
X0086614Y0020079
X0092126Y0032677
X0103937Y0036614
X0043898Y0035827
X0031102
X0027165Y0032677
X0014449Y0023898
X0011417Y0005512
Y0060197
X0006299Y0085433
X0008465Y0095472
Y0125
X001752
X0026378Y0122441
Y0119595
Y0116717
X0033465Y0123622
X0042913Y012874
X0043701Y0106693
X0038976
X0033465Y0107874
X0039764Y0096063
X0044488
X0051575Y0093903
X0049016Y0085433
X0043898Y0085236
X0041339Y0083071
X0046457Y0082284
X0056693
X0066929Y0081496
X0084424Y0081004
X0085827Y0077953
X0087402Y0072736
X008723Y0083366
X0087155Y0086614
X0083071Y0090551
X0084252Y0095669
X0087402Y0096457
X0081102Y0100787
X008189Y010748
X0075197Y010748
X0075669Y0117087
X008185Y011689
X0086559Y0125
X0101969Y0117323
X0105905Y0116535
X0116535Y0106558
X0123622Y0105905
X0134646Y010748
X0138189Y0107874
X0145276Y0108268
X0140551Y0101181
X014378Y0097638
X0143892Y0091339
X0144095Y0084547
X0144193Y008061
X0144095Y0076575
Y0070079
Y0064567
Y0059449
X0146457Y0044882
X0120079Y0049235
X0113779Y0050787
X0109055Y0048031
X0101417Y0047638
X0103937Y0039921
X0095276Y003937
Y0043504
X0087402Y003937
X0088878Y0056791
X0086221Y0062205
X0077165Y0055709
X0065354Y0042126
X0051575Y0042913
X004685Y0042338
X0041339Y0042126
X003622Y0042913
Y0038583
X0043701Y0060197
X0023622Y0055512
X0018898Y0050984
X0023622Y0079134
X002874Y008189
X0035039Y0083858
X003878Y0087598
X001752Y0095472
X0061811Y0098819
X0058752Y0116051
X0058661Y0119791
X0070039Y0115748
X0117323Y0126378
X0124016
X0130709Y0114567
X0134055
X0145669Y0120472
X0148819
X0151969
X0159055Y0129921
X0140551Y0129528
X0118996Y0041142
X0116141Y003937
T02
X0104016Y0011024
X0114016
X0124016
Y0021024
X0114016
X0104016
X0164567Y0019921
Y0029921
Y0009921
Y0039921
Y0049921
Y0059921
Y0069921
Y0079921
Y0089921
Y0099921
Y0109921
Y0119921
T03
X014437Y0015394
T04
X0012992Y0104331
Y0116142
M30
